<svg width="29" height="29" viewBox="0 0 29 29" fill="none" xmlns="http://www.w3.org/2000/svg">
<path d="M14.5001 2.41675C7.83008 2.41675 2.41675 7.83008 2.41675 14.5001C2.41675 21.1701 7.83008 26.5834 14.5001 26.5834C21.1701 26.5834 26.5834 21.1701 26.5834 14.5001C26.5834 7.83008 21.1701 2.41675 14.5001 2.41675ZM4.83341 14.5001C4.83341 9.15925 9.15925 4.83341 14.5001 4.83341C16.7355 4.83341 18.7897 5.59466 20.4209 6.8755L6.8755 20.4209C5.59466 18.7897 4.83341 16.7355 4.83341 14.5001ZM14.5001 24.1667C12.2647 24.1667 10.2105 23.4055 8.57925 22.1247L22.1247 8.57925C23.4055 10.2105 24.1667 12.2647 24.1667 14.5001C24.1667 19.8409 19.8409 24.1667 14.5001 24.1667Z" fill="#FF0000"/>
</svg>
