<svg width="13" height="13" viewBox="0 0 13 13" fill="none" xmlns="http://www.w3.org/2000/svg">
<path d="M2.16675 10.8334H4.33341L10.0209 5.14592C10.1632 5.00365 10.276 4.83476 10.353 4.64888C10.43 4.463 10.4696 4.26378 10.4696 4.06258C10.4696 3.86139 10.43 3.66217 10.353 3.47629C10.276 3.29041 10.1632 3.12151 10.0209 2.97925C9.87865 2.83698 9.70976 2.72413 9.52388 2.64714C9.338 2.57015 9.13878 2.53052 8.93758 2.53052C8.73639 2.53052 8.53716 2.57015 8.35129 2.64714C8.16541 2.72413 7.99651 2.83698 7.85425 2.97925L2.16675 8.66675V10.8334Z" stroke="white" stroke-width="0.7" stroke-linecap="round" stroke-linejoin="round"/>
<path d="M7.3125 3.52075L9.47917 5.68742" stroke="white" stroke-width="0.7" stroke-linecap="round" stroke-linejoin="round"/>
<path d="M9 11H12.25" stroke="white" stroke-width="0.7" stroke-linecap="round" stroke-linejoin="round"/>
</svg>
