<svg width="28" height="28" viewBox="0 0 28 28" fill="none" xmlns="http://www.w3.org/2000/svg">
<rect x="1.25" y="1.25" width="25.5" height="25.5" rx="7.75" stroke="#9197B3" stroke-width="1.5"/>
<path d="M18 9C18 11.2091 16.2091 13 14 13C11.7909 13 10 11.2091 10 9C10 6.79086 11.7909 5 14 5C16.2091 5 18 6.79086 18 9Z" stroke="#9197B3" stroke-width="1.5"/>
<path d="M16 15H12C9.23858 15 7 17.2386 7 20C7 21.1046 7.89543 22 9 22H19C20.1046 22 21 21.1046 21 20C21 17.2386 18.7614 15 16 15Z" stroke="#9197B3" stroke-width="1.5" stroke-linejoin="round"/>
</svg>
