<svg width="147" height="39" viewBox="0 0 147 39" fill="none" xmlns="http://www.w3.org/2000/svg">
<path d="M50.434 13.79V18.34H56.544V21.226H50.434V26.036H57.324V29H46.794V10.826H57.324V13.79H50.434ZM71.9679 18.184V21.252H60.9439V18.184H71.9679ZM79.9501 26.114H85.9301V29H76.3101V10.852H79.9501V26.114ZM101.894 21.486C101.894 22.006 101.859 22.474 101.79 22.89H91.2597C91.3464 23.93 91.7104 24.7447 92.3517 25.334C92.993 25.9233 93.7817 26.218 94.7177 26.218C96.0697 26.218 97.0317 25.6373 97.6037 24.476H101.53C101.114 25.8627 100.316 27.0067 99.1377 27.908C97.959 28.792 96.5117 29.234 94.7957 29.234C93.409 29.234 92.161 28.9307 91.0517 28.324C89.9597 27.7 89.1017 26.8247 88.4777 25.698C87.871 24.5713 87.5677 23.2713 87.5677 21.798C87.5677 20.3073 87.871 18.9987 88.4777 17.872C89.0844 16.7453 89.9337 15.8787 91.0257 15.272C92.1177 14.6653 93.3744 14.362 94.7957 14.362C96.165 14.362 97.387 14.6567 98.4617 15.246C99.5537 15.8353 100.394 16.676 100.984 17.768C101.59 18.8427 101.894 20.082 101.894 21.486ZM98.1237 20.446C98.1064 19.51 97.7684 18.7647 97.1097 18.21C96.451 17.638 95.645 17.352 94.6917 17.352C93.7904 17.352 93.0277 17.6293 92.4037 18.184C91.797 18.7213 91.4244 19.4753 91.2857 20.446H98.1237ZM110.453 14.362C111.527 14.362 112.472 14.5787 113.287 15.012C114.101 15.428 114.743 15.974 115.211 16.65V14.596H118.877V29.104C118.877 30.4387 118.608 31.626 118.071 32.666C117.533 33.7233 116.727 34.5553 115.653 35.162C114.578 35.786 113.278 36.098 111.753 36.098C109.707 36.098 108.026 35.6213 106.709 34.668C105.409 33.7147 104.672 32.4147 104.499 30.768H108.113C108.303 31.4267 108.711 31.9467 109.335 32.328C109.976 32.7267 110.747 32.926 111.649 32.926C112.706 32.926 113.564 32.6053 114.223 31.964C114.881 31.34 115.211 30.3867 115.211 29.104V26.868C114.743 27.544 114.093 28.1073 113.261 28.558C112.446 29.0087 111.51 29.234 110.453 29.234C109.239 29.234 108.13 28.922 107.125 28.298C106.119 27.674 105.322 26.7987 104.733 25.672C104.161 24.528 103.875 23.2193 103.875 21.746C103.875 20.29 104.161 18.9987 104.733 17.872C105.322 16.7453 106.111 15.8787 107.099 15.272C108.104 14.6653 109.222 14.362 110.453 14.362ZM115.211 21.798C115.211 20.914 115.037 20.16 114.691 19.536C114.344 18.8947 113.876 18.4093 113.287 18.08C112.697 17.7333 112.065 17.56 111.389 17.56C110.713 17.56 110.089 17.7247 109.517 18.054C108.945 18.3833 108.477 18.8687 108.113 19.51C107.766 20.134 107.593 20.8793 107.593 21.746C107.593 22.6127 107.766 23.3753 108.113 24.034C108.477 24.6753 108.945 25.1693 109.517 25.516C110.106 25.8627 110.73 26.036 111.389 26.036C112.065 26.036 112.697 25.8713 113.287 25.542C113.876 25.1953 114.344 24.71 114.691 24.086C115.037 23.4447 115.211 22.682 115.211 21.798ZM121.756 21.746C121.756 20.29 122.042 18.9987 122.614 17.872C123.203 16.7453 123.992 15.8787 124.98 15.272C125.985 14.6653 127.103 14.362 128.334 14.362C129.408 14.362 130.344 14.5787 131.142 15.012C131.956 15.4453 132.606 15.9913 133.092 16.65V14.596H136.758V29H133.092V26.894C132.624 27.57 131.974 28.1333 131.142 28.584C130.327 29.0173 129.382 29.234 128.308 29.234C127.094 29.234 125.985 28.922 124.98 28.298C123.992 27.674 123.203 26.7987 122.614 25.672C122.042 24.528 121.756 23.2193 121.756 21.746ZM133.092 21.798C133.092 20.914 132.918 20.16 132.572 19.536C132.225 18.8947 131.757 18.4093 131.168 18.08C130.578 17.7333 129.946 17.56 129.27 17.56C128.594 17.56 127.97 17.7247 127.398 18.054C126.826 18.3833 126.358 18.8687 125.994 19.51C125.647 20.134 125.474 20.8793 125.474 21.746C125.474 22.6127 125.647 23.3753 125.994 24.034C126.358 24.6753 126.826 25.1693 127.398 25.516C127.987 25.8627 128.611 26.036 129.27 26.036C129.946 26.036 130.578 25.8713 131.168 25.542C131.757 25.1953 132.225 24.71 132.572 24.086C132.918 23.4447 133.092 22.682 133.092 21.798ZM144.213 9.76V29H140.573V9.76H144.213Z" fill="black"/>
<path d="M18.5002 35.8875C17.4673 35.8875 16.419 35.6562 15.6019 35.1783L7.12278 30.2912C3.66945 27.9633 3.45361 27.6087 3.45361 23.955V15.0442C3.45361 11.3904 3.65403 11.0358 7.0457 8.73874L15.5865 3.80541C17.2052 2.86499 19.749 2.86499 21.3677 3.80541L29.8777 8.70791C33.3311 11.0358 33.5469 11.3904 33.5469 15.0442V23.9396C33.5469 27.5933 33.3465 27.9479 29.9548 30.245L21.414 35.1783C20.5815 35.6562 19.5331 35.8875 18.5002 35.8875ZM18.5002 5.42416C17.8527 5.42416 17.2207 5.54749 16.7736 5.80958L8.29445 10.7121C5.78153 12.4079 5.78153 12.4079 5.78153 15.0442V23.9396C5.78153 26.5758 5.78153 26.5758 8.35611 28.3179L16.7736 33.1742C17.6832 33.6983 19.3327 33.6983 20.2423 33.1742L28.7215 28.2717C31.219 26.5758 31.219 26.5758 31.219 23.9396V15.0442C31.219 12.4079 31.219 12.4079 28.6444 10.6658L20.2269 5.80958C19.7798 5.54749 19.1477 5.42416 18.5002 5.42416Z" fill="black"/>
<path d="M18.5 25.2812C15.3088 25.2812 12.7188 22.6912 12.7188 19.5C12.7188 16.3088 15.3088 13.7188 18.5 13.7188C21.6912 13.7188 24.2812 16.3088 24.2812 19.5C24.2812 22.6912 21.6912 25.2812 18.5 25.2812ZM18.5 16.0312C16.5883 16.0312 15.0312 17.5883 15.0312 19.5C15.0312 21.4117 16.5883 22.9688 18.5 22.9688C20.4117 22.9688 21.9688 21.4117 21.9688 19.5C21.9688 17.5883 20.4117 16.0312 18.5 16.0312Z" fill="black"/>
</svg>
