<svg width="24" height="29" viewBox="0 0 24 29" fill="none" xmlns="http://www.w3.org/2000/svg">
<path d="M9.03503 13.1349C8.9364 13.1228 8.81803 13.1228 8.70954 13.1349C6.36201 13.0382 4.4978 10.682 4.4978 7.78199C4.4978 4.82158 6.45078 2.41699 8.87722 2.41699C11.2938 2.41699 13.2566 4.82158 13.2566 7.78199C13.2468 10.682 11.3826 13.0382 9.03503 13.1349Z" stroke="#00AC4F" stroke-width="2.625" stroke-linecap="round" stroke-linejoin="round"/>
<path d="M16.1858 4.83301C18.0994 4.83301 19.6381 6.73009 19.6381 9.06217C19.6381 11.3459 18.1586 13.2068 16.3141 13.2913C16.2352 13.2793 16.1464 13.2793 16.0576 13.2913" stroke="#00AC4F" stroke-width="2.625" stroke-linecap="round" stroke-linejoin="round"/>
<path d="M4.10347 17.593C1.71649 19.5505 1.71649 22.7405 4.10347 24.6859C6.81594 26.9093 11.2644 26.9093 13.9769 24.6859C16.3638 22.7284 16.3638 19.5384 13.9769 17.593C11.2743 15.3818 6.8258 15.3818 4.10347 17.593Z" stroke="#00AC4F" stroke-width="2.625" stroke-linecap="round" stroke-linejoin="round"/>
<path d="M18.0896 24.167C18.7998 23.9857 19.4705 23.6353 20.0229 23.1157C21.5616 21.702 21.5616 19.3699 20.0229 17.9562C19.4804 17.4487 18.8195 17.1103 18.1192 16.917" stroke="#00AC4F" stroke-width="2.625" stroke-linecap="round" stroke-linejoin="round"/>
</svg>
